<?xml version="1.0" encoding="utf-8"?>
<svg xmlns="http://www.w3.org/2000/svg" fill="none" height="100%" overflow="visible" preserveAspectRatio="none" style="display: block;" viewBox="0 0 15.438 8.88078" width="100%">
<path d="M7.70215 0.666992C7.82721 0.666992 7.92742 0.704826 8.03418 0.811523L14.627 7.40332C14.7361 7.51254 14.7715 7.61124 14.7715 7.72754C14.7715 7.84385 14.7361 7.94255 14.627 8.05176C14.5229 8.1558 14.4204 8.1962 14.2861 8.19629C14.1516 8.19629 14.0485 8.15592 13.9443 8.05176L13.9434 8.05078L8.17285 2.3125L7.70117 1.84375L1.45996 8.08496C1.35631 8.18861 1.26767 8.21778 1.16016 8.21387C1.03447 8.20927 0.926264 8.1665 0.811523 8.05176C0.707376 7.9476 0.666992 7.84547 0.666992 7.71094C0.667005 7.57643 0.707373 7.47427 0.811523 7.37012L7.37012 0.811523C7.47688 0.704765 7.57711 0.66703 7.70215 0.666992Z" fill="var(--fill-0, black)" id="Vector" stroke="var(--stroke-0, black)" stroke-width="1.33333"/>
</svg>