<?xml version="1.0" encoding="utf-8"?>
<svg xmlns="http://www.w3.org/2000/svg" fill="none" height="100%" overflow="visible" preserveAspectRatio="none" style="display: block;" viewBox="0 0 32 32" width="100%">
<g id="Actions">
<g id="Icon">
<path d="M22.8354 22.364L22.3639 22.8354C22.1036 23.0957 21.6815 23.0957 21.4211 22.8354L16 17.4142L10.5788 22.8353C10.3185 23.0957 9.89638 23.0957 9.63603 22.8353L9.16462 22.3639C8.90427 22.1036 8.90427 21.6815 9.16462 21.4211L14.5858 16L9.16462 10.5788C8.90427 10.3185 8.90427 9.89638 9.16462 9.63603L9.63602 9.16463C9.89637 8.90428 10.3185 8.90428 10.5788 9.16463L16 14.5858L21.4211 9.16462C21.6815 8.90427 22.1036 8.90427 22.3639 9.16462L22.8354 9.63602C23.0957 9.89637 23.0957 10.3185 22.8354 10.5788L17.4142 16L22.8354 21.4211C23.0957 21.6815 23.0957 22.1036 22.8354 22.364Z" fill="var(--fill-0, black)" id="Vector"/>
</g>
</g>
</svg>