<?xml version="1.0" encoding="utf-8"?>
<svg xmlns="http://www.w3.org/2000/svg" fill="none" height="100%" overflow="visible" preserveAspectRatio="none" style="display: block;" viewBox="0 0 134.98 22.5" width="100%">
<g id="Logo">
<path clip-rule="evenodd" d="M36.0702 0L24.5607 22.5H13.75L18.5667 13.175H18.3506C14.3769 18.3335 8.44788 21.7294 0 22.5V13.3041C0 13.3041 5.40431 12.9849 8.58135 9.64469H0V0.000177473H9.64451V7.93265L9.86098 7.93176L13.8021 0.000177473H21.096V7.88235L21.3124 7.882L25.4014 0H36.0702Z" fill="var(--fill-0, black)" fill-rule="evenodd"/>
<path d="M98.833 20.0165H101.939V2.1875H98.833V20.0165Z" fill="var(--fill-0, black)"/>
<path clip-rule="evenodd" d="M81.7092 19.8344C82.3842 20.1151 83.0707 20.2554 83.7686 20.2554C84.9214 20.2554 85.9531 19.9748 86.8633 19.4134C87.7734 18.8522 88.4789 18.0786 88.9796 17.0924C89.4802 16.0988 89.7304 14.9723 89.7304 13.7132C89.7304 12.4541 89.4726 11.3277 88.9568 10.334C88.4409 9.34039 87.7242 8.57049 86.8063 8.02436C85.8886 7.47064 84.8456 7.19758 83.6774 7.20516C82.9342 7.20516 82.2212 7.34928 81.5384 7.63752C80.8558 7.92576 80.2869 8.33536 79.8318 8.86632C79.7967 8.90674 79.7626 8.94757 79.7294 8.98881V2.19894H76.6119V20.0166H79.7067L79.7004 18.3521C79.7804 18.4502 79.8661 18.5461 79.9569 18.6398C80.4499 19.1481 81.0341 19.5462 81.7092 19.8344ZM84.8949 16.9559C84.3867 17.2669 83.8064 17.4224 83.1541 17.4224C82.5093 17.4224 81.9177 17.2631 81.3792 16.9446C80.8406 16.6183 80.4121 16.1747 80.0934 15.6133C79.7824 15.0521 79.6269 14.4148 79.6269 13.7018C79.6194 12.9888 79.7711 12.3517 80.0821 11.7904C80.4007 11.2215 80.8292 10.7816 81.3678 10.4706C81.9063 10.152 82.5018 9.99651 83.1541 10.0041C83.8064 9.99651 84.3867 10.1482 84.8949 10.4592C85.4107 10.7626 85.8051 11.1988 86.0782 11.7676C86.3588 12.3289 86.4992 12.9737 86.4992 13.7018C86.4992 14.4301 86.3588 15.0748 86.0782 15.6361C85.8051 16.1974 85.4107 16.6373 84.8949 16.9559Z" fill="var(--fill-0, black)" fill-rule="evenodd"/>
<path d="M40.5701 3.26843H44.1199L47.2954 14.8654L50.6736 3.26843H53.6318L57.2954 14.6327L60.3447 3.26843H63.5987L58.7973 20.0165H55.7367L52.0112 8.91453L48.5914 20.0165H45.4967L40.5701 3.26843Z" fill="var(--fill-0, black)"/>
<path clip-rule="evenodd" d="M68.8413 20.3123C67.6048 20.3199 66.4898 20.0468 65.4962 19.4931C64.51 18.9318 63.7327 18.1543 63.1637 17.1606C62.6024 16.167 62.3218 15.033 62.3218 13.7586C62.3218 12.5223 62.61 11.4035 63.1865 10.4023C63.7629 9.40102 64.5441 8.61974 65.5303 8.05844C66.5164 7.49714 67.6162 7.21649 68.8298 7.21649C70.1952 7.21649 71.3898 7.51989 72.4138 8.1267C73.4454 8.73352 74.2153 9.59444 74.7235 10.7095C75.2393 11.8169 75.4252 13.0874 75.281 14.521H65.5352C65.5624 15.0921 65.7049 15.6118 65.9627 16.0798C66.2509 16.5955 66.6529 16.9975 67.1686 17.2858C67.6845 17.574 68.2609 17.7181 68.8982 17.7181C69.3835 17.7105 69.8349 17.6271 70.252 17.4679C70.6693 17.301 71.0219 17.0773 71.3102 16.7965C71.606 16.5159 71.8147 16.1974 71.936 15.8409H75.19C74.9928 16.7131 74.5984 17.4906 74.0068 18.1733C73.415 18.8484 72.6718 19.3755 71.7766 19.7548C70.8816 20.134 69.9032 20.3199 68.8413 20.3123ZM65.974 11.3921C65.7923 11.7091 65.6663 12.0504 65.5962 12.4161H72.0565C72.0097 11.9541 71.867 11.5332 71.6288 11.1532C71.3557 10.7057 70.984 10.3605 70.5138 10.1178C70.0435 9.8675 69.5125 9.74235 68.9209 9.74235C68.2913 9.74235 67.7186 9.88647 67.2028 10.1747C66.687 10.4629 66.2774 10.8688 65.974 11.3921Z" fill="var(--fill-0, black)" fill-rule="evenodd"/>
<path d="M92.0178 7.4782C92.0178 6.46179 92.249 5.55915 92.7118 4.77029C93.1744 3.97385 93.823 3.35565 94.6574 2.91572C95.4993 2.46819 96.4816 2.23684 97.6041 2.22168V4.98647C97.0808 4.99405 96.6333 5.10404 96.2616 5.31643C95.8975 5.52123 95.6169 5.82084 95.4196 6.21527C95.2381 6.57839 95.1401 6.99937 95.1258 7.4782H97.5359V10.1065H95.1239V20.0165H92.0178V10.1065H90.0153V7.4782H92.0178Z" fill="var(--fill-0, black)"/>
<path clip-rule="evenodd" d="M109.835 20.2895C108.568 20.2895 107.434 20.0126 106.433 19.459C105.439 18.8976 104.658 18.124 104.089 17.1378C103.528 16.1442 103.247 15.0178 103.247 13.7586C103.247 12.492 103.528 11.3617 104.089 10.3681C104.658 9.36682 105.439 8.58935 106.433 8.03563C107.434 7.48191 108.568 7.20505 109.835 7.20505C111.109 7.20505 112.247 7.48191 113.248 8.03563C114.257 8.58935 115.042 9.36303 115.603 10.3567C116.165 11.3503 116.449 12.4843 116.457 13.7586C116.449 15.0178 116.165 16.1442 115.603 17.1378C115.05 18.124 114.268 18.8976 113.259 19.459C112.251 20.0126 111.109 20.2895 109.835 20.2895ZM109.835 17.4337C110.502 17.4337 111.094 17.282 111.61 16.9786C112.126 16.6676 112.524 16.2352 112.804 15.6815C113.085 15.1202 113.225 14.4792 113.225 13.7586C113.225 13.0305 113.085 12.3857 112.804 11.8244C112.524 11.2631 112.126 10.8308 111.61 10.5274C111.094 10.2164 110.502 10.0609 109.835 10.0609C109.175 10.0609 108.587 10.2164 108.071 10.5274C107.563 10.8308 107.169 11.2631 106.888 11.8244C106.607 12.3857 106.471 13.0305 106.478 13.7586C106.478 14.4792 106.619 15.1202 106.899 15.6815C107.188 16.2352 107.582 16.6676 108.083 16.9786C108.591 17.282 109.175 17.4337 109.835 17.4337Z" fill="var(--fill-0, black)" fill-rule="evenodd"/>
<path d="M119.813 7.47818H116.354L120.098 20.0165H123.124L125.586 12.0083L128.244 20.0165H131.225L134.98 7.47818H131.851L129.721 15.2825L127.367 7.47818H124.341L121.999 15.4544L119.813 7.47818Z" fill="var(--fill-0, black)"/>
</g>
</svg>