<?xml version="1.0" encoding="utf-8"?>
<svg xmlns="http://www.w3.org/2000/svg" fill="none" height="100%" overflow="visible" preserveAspectRatio="none" style="display: block;" viewBox="0 0 24 26.6668" width="100%">
<path clip-rule="evenodd" d="M23.64 6.82666L23.4533 6.49333C23.2125 6.09025 22.8729 5.75524 22.4667 5.52L13.52 0.36C13.1149 0.125 12.6551 0.000826666 12.1867 0H11.8C11.3316 0.000826666 10.8717 0.125 10.4667 0.36L1.52 5.53333C1.11596 5.76701 0.780346 6.10263 0.546667 6.50667L0.36 6.84C0.125 7.24512 0.000826666 7.70498 0 8.17333V18.5067C0.000826666 18.9751 0.125 19.4349 0.36 19.84L0.546667 20.1733C0.786386 20.5727 1.12065 20.9069 1.52 21.1467L10.48 26.3067C10.8831 26.5465 11.3443 26.6711 11.8133 26.6667H12.1867C12.6551 26.6659 13.1149 26.5417 13.52 26.3067L22.4667 21.1333C22.8747 20.9049 23.2116 20.568 23.44 20.16L23.64 19.8267C23.8721 19.4204 23.9961 18.9613 24 18.4933V8.16C23.9992 7.69165 23.8751 7.23178 23.64 6.82666ZM11.8 2.66667H12.1867L20 7.17333L12 11.7867L4 7.17333L11.8 2.66667ZM13.3333 23.3333L21.1333 18.8267L21.3333 18.4933V9.48L13.3333 14.1067V23.3333Z" fill="var(--fill-0, black)" fill-rule="evenodd" id="Vector"/>
</svg>