<?xml version="1.0" encoding="utf-8"?>
<svg xmlns="http://www.w3.org/2000/svg" fill="none" height="100%" overflow="visible" preserveAspectRatio="none" style="display: block;" viewBox="0 0 132.515 35.8748" width="100%">
<path clip-rule="evenodd" d="M31.5517 8.73552L31.8029 9.18396C32.1191 9.7289 32.2861 10.3476 32.2872 10.9776V24.8791C32.282 25.5086 32.1152 26.1262 31.8029 26.6728L31.5338 27.1213C31.2266 27.6703 30.7733 28.1234 30.2245 28.4307L18.1884 35.3903C17.6434 35.7065 17.0248 35.8735 16.3947 35.8747H15.8925C15.2615 35.8806 14.641 35.713 14.0987 35.3903L2.04486 28.4487C1.50761 28.1261 1.05792 27.6765 0.735434 27.1392L0.48431 26.6908C0.168157 26.1457 0.00111999 25.5271 0 24.897V10.9955C0.00111999 10.3656 0.168157 9.74684 0.48431 9.20189L0.735434 8.75346C1.04979 8.20991 1.50131 7.75832 2.04486 7.44403L14.0808 0.48431C14.6258 0.168174 15.2444 0.00113749 15.8745 0H16.3947C17.0248 0.00113749 17.6434 0.168174 18.1884 0.48431L30.2245 7.42609C30.7711 7.74249 31.2279 8.1932 31.5517 8.73552ZM16.3947 3.58739H15.8745L5.38122 9.65024L16.1436 15.8565L26.906 9.65024L16.3947 3.58739ZM28.4306 25.3276L17.9373 31.3905V18.9778L28.6997 12.7536V24.8792L28.4306 25.3276ZM79.0633 26.5475H75.3438V6.91687H79.0633V26.5475ZM45.5 26.9683H49.6586V19.8392H51.4667L55.8836 26.9683H60.3263L55.4445 19.1161C57.6142 18.4703 59.2415 16.998 59.2415 14.2084V14.105C59.2415 10.2823 56.4777 8.5 52.1124 8.5H45.5V26.9683ZM49.6586 16.998V11.7029H52.0091C54.0239 11.7029 55.1604 12.3487 55.1604 14.2342V14.3375C55.1604 16.1198 54.1014 16.998 52.0091 16.998H49.6586ZM67.0806 26.8309C70.7742 26.8309 73.0989 25.2037 73.538 22.2849H69.9993C69.7668 23.4214 68.9145 24.1705 67.1839 24.1705C65.1433 24.1705 63.9294 22.879 63.826 20.6318H73.5639V19.5986C73.5639 14.7684 70.4643 12.7279 66.9772 12.7279C63.0511 12.7279 60.029 15.4917 60.029 19.7536V19.9602C60.029 24.2738 62.9994 26.8309 67.0806 26.8309ZM63.8777 18.333C64.1618 16.4215 65.2983 15.3109 66.9772 15.3109C68.7595 15.3109 69.7927 16.2924 69.9219 18.333H63.8777ZM86.1985 26.832C88.4201 26.832 89.7886 25.7988 90.486 24.4299V26.5479H94.2056V13.0389H90.486V20.9687C90.486 22.9576 89.2461 23.9391 87.6711 23.9391C86.0698 23.9391 85.32 23.0609 85.32 21.227V13.0389H81.6009V21.7436C81.6009 25.2822 83.5639 26.832 86.1985 26.832ZM100.491 26.5468H96.7448V13.0378H100.491V15.1042C101.162 13.8385 102.608 12.7279 104.623 12.7279C106.406 12.7279 107.749 13.477 108.395 15.0784C109.479 13.4511 111.236 12.7279 112.94 12.7279C115.446 12.7279 117.383 14.3035 117.383 17.8939V26.5468H113.664V18.3071C113.664 16.5765 112.888 15.8016 111.545 15.8016C110.099 15.8016 108.937 16.7315 108.937 18.5654V26.5468H105.217V18.3071C105.217 16.5765 104.417 15.8016 103.099 15.8016C101.653 15.8016 100.491 16.7315 100.491 18.5654V26.5468ZM126.031 26.8309C129.726 26.8309 132.051 25.2037 132.489 22.2849H128.95C128.718 23.4214 127.865 24.1705 126.135 24.1705C124.094 24.1705 122.881 22.879 122.777 20.6318H132.515V19.5986C132.515 14.7684 129.415 12.7279 125.928 12.7279C122.002 12.7279 118.98 15.4917 118.98 19.7536V19.9602C118.98 24.2738 121.95 26.8309 126.031 26.8309ZM122.829 18.333C123.113 16.4215 124.25 15.3109 125.928 15.3109C127.711 15.3109 128.744 16.2924 128.873 18.333H122.829Z" fill="var(--fill-0, black)" fill-rule="evenodd" id="Logo"/>
</svg>